<svg width="16" height="16" viewBox="0 0 16 16" fill="none" xmlns="http://www.w3.org/2000/svg">
<g clip-path="url(#clip0_1180_61)" filter="url(#filter0_i_1180_61)">
<mask id="mask0_1180_61" style="mask-type:luminance" maskUnits="userSpaceOnUse" x="-14" y="-7" width="44" height="29">
<path d="M-13.2939 -6.05404H29.2135V21.9361H-13.2939V-6.05404Z" fill="white"/>
</mask>
<g mask="url(#mask0_1180_61)">
<path d="M8.00791 14.9748C8.10231 14.9705 8.19187 14.9673 8.28132 14.9622C8.37049 14.957 8.45957 14.9502 8.54866 14.9436C9.33892 14.8853 10.0969 14.6923 10.7981 14.333C13.3076 13.0472 14.5435 10.9537 14.7248 8.20893C14.7527 7.78611 14.713 7.3628 14.6524 6.9424C14.4955 5.85467 14.1233 4.84493 13.4947 3.9384C12.2696 2.1715 10.5816 1.16428 8.41073 0.979612C8.01638 0.946066 7.6206 0.971046 7.22616 1.01997C6.51727 1.1079 5.83558 1.29237 5.20413 1.61889C2.7538 2.88592 1.51773 4.93321 1.3092 7.6193C1.26376 8.2047 1.31905 8.79118 1.43716 9.36972C1.75931 10.9476 2.50451 12.2907 3.73295 13.3548C4.95447 14.4128 6.38631 14.9484 8.00791 14.9748ZM8.0229 0.767614C9.88748 0.770259 11.5416 1.35734 12.9587 2.55584C14.271 3.66581 15.08 5.07121 15.3896 6.75417C15.4853 7.27462 15.5205 7.80014 15.4888 8.32539C15.3852 10.0439 14.7484 11.5465 13.5619 12.811C12.4161 14.0322 10.9983 14.7704 9.34491 15.0684C9.04497 15.1225 8.73752 15.1366 8.43328 15.1666C8.30284 15.1794 8.17161 15.1956 8.041 15.1936C6.65785 15.1718 5.35175 14.8574 4.15804 14.1536C2.41954 13.1286 1.27426 11.6531 0.752823 9.71481C0.648637 9.3275 0.575128 8.93369 0.559442 8.5324C0.546364 8.19786 0.52402 7.86153 0.544267 7.52826C0.59522 6.68963 0.784151 5.87831 1.14117 5.11391C2.15514 2.94294 3.85485 1.57897 6.18685 0.974993C6.78636 0.819732 7.39874 0.744508 8.0229 0.767614Z" fill="#212121"/>
<path d="M8.55686 5.78959C8.51502 5.80832 8.47255 5.8258 8.4314 5.84594C7.4249 6.33863 6.41909 6.83273 5.41116 7.32256C5.32554 7.36416 5.28622 7.41811 5.26338 7.50735C4.9187 8.85314 4.57052 10.1981 4.22288 11.5431C4.21377 11.5783 4.20161 11.6128 4.19131 11.6462C3.95177 11.6163 3.75672 11.4216 3.76452 11.1978C3.77066 11.0223 3.79843 10.8451 3.83788 10.6734C3.9746 10.0783 4.12003 9.48512 4.26329 8.89149C4.34533 8.55154 4.42977 8.21214 4.51246 7.87233C4.51982 7.84205 4.5223 7.81062 4.53045 7.75766C4.1095 7.96269 3.70622 8.15913 3.30126 8.35639C3.26493 8.27727 3.31742 8.2628 3.35838 8.24254C3.49766 8.1737 3.63721 8.10536 3.77674 8.03695C4.00503 7.92503 4.23141 7.80898 4.46274 7.70354C4.54951 7.66399 4.5891 7.6072 4.61219 7.51959C4.81889 6.73511 5.02756 5.95112 5.23924 5.16796C5.29274 4.97002 5.36375 4.77672 5.41789 4.57896C5.45097 4.45815 5.47687 4.33374 5.48851 4.20935C5.50187 4.06667 5.44725 3.99468 5.3152 3.9382C5.27923 3.92281 5.24346 3.907 5.21074 3.87666C5.54801 3.86367 5.88236 3.84787 6.23864 3.87215C5.93436 5.00984 5.63637 6.12402 5.33274 7.25931C5.37709 7.24554 5.40254 7.24113 5.42472 7.23026C7.31444 6.30363 9.20435 5.37744 11.0928 4.44843C11.3674 4.3134 11.6378 4.16962 11.9045 4.02014C12.0174 3.95685 12.1301 3.93226 12.2555 3.94599C12.333 3.95447 12.4106 3.9627 12.4981 3.97212C12.4759 4.0412 12.4253 4.0519 12.3877 4.07273C11.5356 4.54488 10.681 5.01257 9.83074 5.48779C8.71341 6.11223 7.58865 6.72446 6.50801 7.41068C6.26991 7.56187 6.03075 7.71403 5.80898 7.88689C5.63246 8.02449 5.4658 8.18139 5.32299 8.35269C5.06667 8.66009 5.1337 8.9081 5.49839 9.07631C5.75698 9.19557 6.0333 9.26016 6.31214 9.30859C7.19955 9.4627 8.08885 9.60639 8.9759 9.76249C9.70926 9.89155 10.4436 10.0187 11.1573 10.237C11.7365 10.4143 12.2136 10.7464 12.6185 11.1858C12.6522 11.2224 12.6797 11.2646 12.71 11.3041C12.7041 11.3127 12.6982 11.3212 12.6923 11.3298C12.6276 11.2973 12.5617 11.2668 12.4984 11.2319C12.0958 11.01 11.6698 10.8464 11.2186 10.7556C10.9464 10.7009 10.67 10.6629 10.394 10.6311C9.40538 10.5172 8.41908 10.3882 7.44039 10.208C7.01792 10.1302 6.60146 10.0282 6.19999 9.87295C5.9472 9.7752 5.71495 9.64346 5.50954 9.46768C5.35427 9.3348 5.22861 9.17902 5.1446 8.99221C5.04585 8.77264 5.03903 8.55216 5.12634 8.32654C5.22655 8.0676 5.38195 7.84536 5.59902 7.67397C5.85313 7.47338 6.11571 7.28221 6.38398 7.10041C7.03475 6.65941 7.72704 6.28581 8.41168 5.90004C8.4647 5.87016 8.51768 5.84021 8.57069 5.81029L8.55686 5.78959Z" fill="#212121"/>
</g>
</g>
<defs>
<filter id="filter0_i_1180_61" x="0" y="0" width="16" height="20" filterUnits="userSpaceOnUse" color-interpolation-filters="sRGB">
<feFlood flood-opacity="0" result="BackgroundImageFix"/>
<feBlend mode="normal" in="SourceGraphic" in2="BackgroundImageFix" result="shape"/>
<feColorMatrix in="SourceAlpha" type="matrix" values="0 0 0 0 0 0 0 0 0 0 0 0 0 0 0 0 0 0 127 0" result="hardAlpha"/>
<feOffset dy="4"/>
<feGaussianBlur stdDeviation="2"/>
<feComposite in2="hardAlpha" operator="arithmetic" k2="-1" k3="1"/>
<feColorMatrix type="matrix" values="0 0 0 0 0 0 0 0 0 0 0 0 0 0 0 0 0 0 0.25 0"/>
<feBlend mode="normal" in2="shape" result="effect1_innerShadow_1180_61"/>
</filter>
<clipPath id="clip0_1180_61">
<rect width="16" height="16" fill="white"/>
</clipPath>
</defs>
</svg>
