<svg width="32" height="32" viewBox="0 0 32 32" fill="none" xmlns="http://www.w3.org/2000/svg">
<g clip-path="url(#clip0_1302_288)" filter="url(#filter0_i_1302_288)">
<mask id="mask0_1302_288" style="mask-type:luminance" maskUnits="userSpaceOnUse" x="-27" y="-13" width="86" height="57">
<path d="M-26.5869 -12.1081H58.428V43.8722H-26.5869V-12.1081Z" fill="white"/>
</mask>
<g mask="url(#mask0_1302_288)">
<path d="M16.0178 29.9496C16.2066 29.941 16.3857 29.9347 16.5646 29.9244C16.7429 29.9141 16.9211 29.9004 17.0993 29.8873C18.6798 29.7706 20.1957 29.3846 21.5982 28.666C26.6172 26.0944 29.089 21.9073 29.4516 16.4179C29.5074 15.5722 29.428 14.7256 29.3068 13.8848C28.993 11.7093 28.2486 9.68986 26.9914 7.87679C24.5411 4.34301 21.1651 2.32855 16.8234 1.95922C16.0347 1.89213 15.2431 1.94209 14.4543 2.03995C13.0365 2.21581 11.6731 2.58475 10.4102 3.23779C5.50956 5.77185 3.03741 9.86642 2.62036 15.2386C2.52948 16.4094 2.64005 17.5824 2.87628 18.7394C3.52058 21.8952 5.01098 24.5815 7.46785 26.7095C9.9109 28.8256 12.7746 29.8969 16.0178 29.9496ZM16.0478 1.53523C19.7769 1.54052 23.0852 2.71468 25.9193 5.11167C28.544 7.33163 30.162 10.1424 30.7811 13.5083C30.9726 14.5492 31.0429 15.6003 30.9796 16.6508C30.7723 20.0877 29.4987 23.093 27.1257 25.6221C24.8342 28.0643 21.9985 29.5407 18.6918 30.1369C18.0919 30.245 17.477 30.2732 16.8685 30.3332C16.6076 30.3589 16.3452 30.3912 16.0839 30.3872C13.3176 30.3436 10.7054 29.7147 8.31803 28.3072C4.84103 26.2573 2.55048 23.3062 1.5076 19.4296C1.29923 18.655 1.15221 17.8674 1.12084 17.0648C1.09468 16.3957 1.04999 15.7231 1.09049 15.0565C1.19239 13.3793 1.57025 11.7566 2.2843 10.2278C4.31224 5.88588 7.71165 3.15793 12.3757 1.94999C13.5747 1.63946 14.7994 1.48902 16.0478 1.53523Z" fill="#212121"/>
<path d="M17.1147 11.5792C17.031 11.6167 16.9461 11.6516 16.8638 11.6919C14.8508 12.6773 12.8392 13.6655 10.8233 14.6451C10.6521 14.7284 10.5734 14.8363 10.5277 15.0147C9.83838 17.7063 9.14202 20.3962 8.44674 23.0863C8.42852 23.1567 8.4042 23.2257 8.3836 23.2925C7.90452 23.2327 7.51441 22.8433 7.53002 22.3957C7.54229 22.0445 7.59784 21.6902 7.67673 21.3468C7.95017 20.1565 8.24103 18.9703 8.52756 17.783C8.69164 17.1031 8.86051 16.4243 9.02589 15.7447C9.04063 15.6841 9.04559 15.6213 9.06188 15.5154C8.21998 15.9254 7.41341 16.3183 6.6035 16.7128C6.53084 16.5546 6.63581 16.5256 6.71773 16.4851C6.9963 16.3474 7.2754 16.2107 7.55445 16.0739C8.01104 15.8501 8.4638 15.618 8.92645 15.4071C9.09999 15.328 9.17917 15.2144 9.22536 15.0392C9.63876 13.4703 10.0561 11.9023 10.4794 10.3359C10.5865 9.94008 10.7285 9.55348 10.8368 9.15795C10.9029 8.91634 10.9547 8.66751 10.978 8.41873C11.0047 8.13337 10.8955 7.98939 10.6314 7.87642C10.5594 7.84566 10.4879 7.81403 10.4225 7.75335C11.097 7.72737 11.7657 7.69577 12.4783 7.74434C11.8697 10.0197 11.2737 12.2481 10.6665 14.5187C10.7552 14.4911 10.806 14.4823 10.8504 14.4605C14.6298 12.6073 18.4097 10.7549 22.1867 8.89689C22.7357 8.62684 23.2765 8.33927 23.8099 8.0403C24.0358 7.91373 24.2612 7.86455 24.512 7.89201C24.6671 7.90897 24.8222 7.92543 24.9971 7.94427C24.9528 8.08243 24.8516 8.10384 24.7764 8.14549C23.0723 9.08979 21.3631 10.0252 19.6624 10.9756C17.4278 12.2245 15.1783 13.449 13.017 14.8214C12.5408 15.1238 12.0625 15.4281 11.6189 15.7738C11.2659 16.049 10.9326 16.3628 10.647 16.7054C10.1343 17.3202 10.2684 17.8162 10.9978 18.1526C11.5149 18.3912 12.0676 18.5204 12.6253 18.6172C14.4001 18.9254 16.1787 19.2128 17.9528 19.525C19.4195 19.7831 20.8883 20.0374 22.3155 20.4741C23.4741 20.8286 24.4281 21.4929 25.238 22.3717C25.3054 22.4448 25.3604 22.5292 25.4211 22.6083C25.4092 22.6254 25.3973 22.6425 25.3855 22.6595C25.2561 22.5945 25.1244 22.5337 24.9978 22.4639C24.1926 22.0199 23.3405 21.6928 22.4381 21.5113C21.8938 21.4018 21.3411 21.3258 20.7889 21.2622C18.8117 21.0344 16.8391 20.7764 14.8817 20.416C14.0368 20.2604 13.2039 20.0564 12.401 19.7459C11.8954 19.5504 11.4309 19.2869 11.0201 18.9354C10.7095 18.6696 10.4582 18.3581 10.2902 17.9845C10.0927 17.5453 10.079 17.1044 10.2536 16.6531C10.4541 16.1352 10.7649 15.6907 11.199 15.348C11.7072 14.9468 12.2324 14.5644 12.7689 14.2009C14.0705 13.3189 15.4551 12.5717 16.8243 11.8001C16.9304 11.7404 17.0363 11.6805 17.1424 11.6206L17.1147 11.5792Z" fill="#212121"/>
</g>
</g>
<defs>
<filter id="filter0_i_1302_288" x="0" y="0" width="32" height="36" filterUnits="userSpaceOnUse" color-interpolation-filters="sRGB">
<feFlood flood-opacity="0" result="BackgroundImageFix"/>
<feBlend mode="normal" in="SourceGraphic" in2="BackgroundImageFix" result="shape"/>
<feColorMatrix in="SourceAlpha" type="matrix" values="0 0 0 0 0 0 0 0 0 0 0 0 0 0 0 0 0 0 127 0" result="hardAlpha"/>
<feOffset dy="4"/>
<feGaussianBlur stdDeviation="2"/>
<feComposite in2="hardAlpha" operator="arithmetic" k2="-1" k3="1"/>
<feColorMatrix type="matrix" values="0 0 0 0 0 0 0 0 0 0 0 0 0 0 0 0 0 0 0.25 0"/>
<feBlend mode="normal" in2="shape" result="effect1_innerShadow_1302_288"/>
</filter>
<clipPath id="clip0_1302_288">
<rect width="32" height="32" fill="white"/>
</clipPath>
</defs>
</svg>
