<?xml version="1.0" encoding="UTF-8" standalone="no"?>
<!-- Created with Inkscape (http://www.inkscape.org/) -->

<svg
   version="1.1"
   id="svg2"
   width="4000"
   height="2666.6667"
   viewBox="0 0 4000 2666.6667"
   sodipodi:docname="01 Brand name FF.ai"
   xmlns:inkscape="http://www.inkscape.org/namespaces/inkscape"
   xmlns:sodipodi="http://sodipodi.sourceforge.net/DTD/sodipodi-0.dtd"
   xmlns="http://www.w3.org/2000/svg"
   xmlns:svg="http://www.w3.org/2000/svg">
  <defs
     id="defs6">
    <clipPath
       clipPathUnits="userSpaceOnUse"
       id="clipPath16">
      <path
         d="M 0,2000 H 3000 V 0 H 0 Z"
         id="path14" />
    </clipPath>
  </defs>
  <sodipodi:namedview
     id="namedview4"
     pagecolor="#ffffff"
     bordercolor="#000000"
     borderopacity="0.25"
     inkscape:showpageshadow="2"
     inkscape:pageopacity="0.0"
     inkscape:pagecheckerboard="0"
     inkscape:deskcolor="#d1d1d1" />
  <g
     id="g8"
     inkscape:groupmode="layer"
     inkscape:label="01 Brand name FF"
     transform="matrix(1.3333333,0,0,-1.3333333,0,2666.6667)">
    <g
       id="g10">
      <g
         id="g12"
         clip-path="url(#clipPath16)">
        <g
           id="g18"
           transform="translate(482.3295,790.3629)">
          <path
             d="m 0,0 c -17.491,2.542 -25.215,10.634 -26.223,26.247 -0.215,3.32 -0.098,6.663 -0.098,9.996 -0.004,54.657 -0.003,109.315 -0.003,163.973 0,3.523 0,7.046 0,12.323 -19.054,-11.53 -36.492,-22.083 -54.118,-32.749 -3.485,5.615 0.063,7.128 2.731,8.805 10.718,6.733 21.492,13.375 32.248,20.045 4.529,2.808 8.981,5.752 13.625,8.354 3.845,2.154 5.622,4.855 5.607,9.544 -0.177,54.991 -0.197,109.982 -0.126,164.972 0.017,13.338 -5.569,22.266 -18.857,27.184 7.336,0.091 14.671,0.217 22.007,0.263 7.278,0.045 14.557,0.01 22.718,0.01 V 238.066 c 3.553,1.637 5.887,2.427 7.924,3.695 44.677,27.793 89.339,55.61 133.966,83.483 48.015,29.988 95.947,60.109 144.072,89.918 3.709,2.297 8.611,3.332 13.05,3.641 8.173,0.569 16.413,0.163 25.231,-1.683 -5.689,-3.702 -11.363,-7.427 -17.068,-11.104 -63.822,-41.13 -127.912,-81.853 -191.345,-123.574 -25,-16.443 -48.99,-34.534 -72.524,-53.038 -9.505,-7.475 -17.339,-17.501 -24.506,-27.4 -6.821,-9.42 -5.233,-19.084 2.553,-26.046 2.658,-2.377 6.064,-4.201 9.436,-5.445 11.231,-4.142 22.465,-8.375 33.947,-11.717 23.953,-6.972 48.092,-13.306 72.107,-20.068 40.66,-11.449 81.457,-22.459 121.86,-34.755 26.084,-7.939 47.544,-23.706 65.083,-44.62 11.371,-13.561 18.312,-29.273 21.953,-46.489 0.534,-2.53 0.391,-5.202 -0.598,-8.154 -0.731,1.588 -1.633,3.121 -2.165,4.773 -5.895,18.323 -17.905,31.657 -33.896,41.787 -15.339,9.716 -32.08,16.355 -49.434,21.139 -25.966,7.158 -52.174,13.436 -78.27,20.128 -42.526,10.904 -85.137,21.499 -127.494,33.027 -9.43,2.566 -18.36,7.801 -26.796,12.984 -11.573,7.111 -18.112,18.121 -21.284,31.388 -4.972,20.792 -1.879,39.681 12.312,56.106 8.044,9.31 16.435,18.319 25.447,28.327 -2.626,-1.135 -4.586,-1.729 -6.283,-2.755 C 27.387,245.928 18.237,239.796 8.623,234.502 2.011,230.861 -0.267,226.334 -0.209,218.608 0.189,165.62 0,112.627 0,59.635 0,42.971 0,26.307 0,9.643 0,6.702 0,3.762 0,0"
             style="fill:#000000;fill-opacity:1;fill-rule:nonzero;stroke:none"
             id="path20" />
        </g>
        <g
           id="g22"
           transform="translate(2209.7576,795.3407)">
          <path
             d="m 0,0 c -9.438,29.745 -31.4,46.002 -58.111,57.359 -23.367,9.935 -47.961,15.89 -72.514,22.032 -53.878,13.479 -107.774,26.912 -161.423,41.257 -10.329,2.762 -20.034,8.881 -29.181,14.765 -10.5,6.755 -15.941,17.445 -18.887,29.573 -5.055,20.803 -1.798,39.671 12.334,56.097 8.024,9.325 16.432,18.32 25.44,28.323 -2.639,-1.146 -4.612,-1.747 -6.319,-2.786 -9.671,-5.883 -19.094,-12.201 -28.975,-17.698 -5.987,-3.331 -7.991,-7.451 -7.954,-14.318 0.291,-54.656 0.162,-109.315 0.162,-163.973 0,-14.997 0,-29.995 0,-44.992 0,-3.282 0,-6.564 0,-9.808 -14.195,-0.024 -22.622,6.487 -25.318,19.551 -0.931,4.513 -0.961,9.266 -0.966,13.909 -0.062,54.991 -0.04,109.982 -0.04,164.973 -10e-4,3.65 -10e-4,7.301 -10e-4,12.08 -2.701,-1.026 -4.805,-1.485 -6.547,-2.54 -13.387,-8.11 -26.688,-16.363 -40.058,-24.502 -2.439,-1.484 -5.072,-2.649 -7.815,-4.064 -3.132,5.205 0.384,6.716 3.056,8.394 10.72,6.729 21.493,13.373 32.249,20.043 4.529,2.807 8.981,5.752 13.626,8.353 3.853,2.157 5.597,4.881 5.582,9.559 -0.176,54.99 -0.196,109.981 -0.127,164.972 0.017,13.333 -5.593,22.246 -19.112,26.313 14.907,1.234 29.498,1.104 45.003,1.068 V 233.088 c 3.55,1.643 5.885,2.44 7.925,3.709 44.676,27.794 89.338,55.611 133.965,83.484 48.015,29.988 95.955,60.095 144.06,89.937 3.465,2.149 7.961,3.342 12.066,3.605 8.504,0.545 17.067,0.164 26.177,-1.656 -5.96,-3.905 -11.899,-7.843 -17.883,-11.71 -68.805,-44.462 -137.801,-88.633 -206.327,-133.521 -23.926,-15.673 -47.806,-31.728 -67.655,-52.715 -5.229,-5.529 -10.241,-11.511 -14.111,-18.023 -7.027,-11.824 -3.542,-23.159 9.015,-28.872 9.341,-4.25 19.221,-7.466 29.083,-10.389 26.783,-7.937 53.672,-15.515 80.54,-23.161 40.629,-11.562 81.449,-22.492 121.853,-34.791 26.084,-7.94 47.541,-23.713 65.075,-44.632 C -10.746,40.791 -3.84,25.071 -0.145,7.865 0.203,6.245 0.359,4.568 0.427,2.91 0.467,1.947 0.154,0.97 0,0"
             style="fill:#000000;fill-opacity:1;fill-rule:nonzero;stroke:none"
             id="path24" />
        </g>
        <g
           id="g26"
           transform="translate(2572.1299,999.38)">
          <path
             d="m 0,0 c -0.88,-54.1 -16.57,-102.81 -53.04,-143.78 -25.72,-28.91 -57.52,-47.49 -96.07,-52.63 -48.86,-6.51 -90.55,9.78 -125.7,43.31 -33.77,32.21 -52.3,72.41 -59.75,118.16 -7.39,45.31 -1.88,89.01 16.94,130.71 19.02,42.13 48.37,74.78 91.5,93.45 43.96,19.02 87.2,15.98 128.65,-7.01 C -52.62,157.35 -25.33,118.1 -10.14,69.9 -3.27,48.09 0.45,26.25 0,0 m 28.67,48.04 c -8.45,40.76 -27.52,76.21 -56.91,105.73 -28.72,28.84 -62.88,48.16 -103.44,54.12 -15.69,2.31 -31.84,1.7 -47.79,2.01 -37.61,0.73 -71.6,-10.91 -101.92,-32.44 -59.94,-42.56 -88.15,-101.96 -90.29,-174.6 0,-5.99 -0.57,-12.05 0.09,-17.97 4.45,-40.02 16.63,-77.28 40.89,-109.9 25.71,-34.58 58.43,-59.76 99.8,-73.12 25.99,-8.4 52.47,-10.78 79.69,-8.73 39.44,2.98 74.16,17.21 105.06,41.47 29.51,23.18 50.36,52.74 64.68,87.21 10.61,25.57 14.61,52.62 15.64,79.83 0.58,15.39 -2.34,31.17 -5.5,46.39"
             style="fill:#000000;fill-opacity:1;fill-rule:nonzero;stroke:none"
             id="path28" />
        </g>
        <g
           id="g30"
           transform="translate(1542.27,993.16)">
          <path
             d="m 0,0 c 0,-0.97 -0.25,-1.95 -0.49,-3.69 -2.4,-0.26 -4.93,-0.76 -7.45,-0.76 -24.99,-0.06 -49.98,-0.11 -74.97,-0.02 -17.26,0.07 -32.25,4.69 -41.35,22.34 39.88,61.65 79.97,123.64 120.06,185.62 0.88,-0.03 1.75,-0.06 2.62,-0.08 0.54,-3.5 1.56,-6.99 1.56,-10.48 C 0.07,128.62 0.03,64.31 0,0 M 43.04,-190.49 H 30.21 c -0.96,6.44 -2.45,11.92 -2.47,17.39 -0.19,50.99 -0.13,101.97 -0.11,152.95 0.01,1.88 0.44,3.77 0.71,5.9 2.5,0.16 4.45,0.4 6.4,0.4 36.66,0.02 73.31,0.02 109.97,0.02 1.33,0 2.67,0.06 4,-0.08 8.08,-0.81 12.48,-5.94 12.03,-14.06 -0.13,-2.33 -0.49,-4.64 -0.75,-6.96 0.51,-0.12 1.01,-0.25 1.52,-0.37 5.87,9.78 11.74,19.56 18.59,30.98 H 28.22 c -0.27,2.15 -0.57,3.41 -0.57,4.67 -0.09,58.98 -0.3,117.96 -0.12,176.94 0.06,19.99 15.15,34.2 35.27,34.21 52.65,0.03 105.3,0 157.95,0.03 2.99,0 5.98,0.31 8.97,0.47 -1.24,2.41 -2.6,3.86 -3.97,3.86 -89.53,0.11 -179.06,0.1 -268.59,0.1 -0.08,-0.78 -0.17,-1.56 -0.25,-2.35 8.58,-4.9 18.93,0.04 28.72,-3.25 -2.27,-3.65 -4.11,-6.73 -6.06,-9.73 -42.91,-65.86 -85.86,-131.7 -128.75,-197.57 -38.35,-58.89 -76.8,-117.72 -114.82,-176.81 -7.41,-11.51 -16.6,-17.76 -30.41,-16.8 -1.96,0.13 -3.99,-0.55 -6.25,-0.9 5.25,-8.99 12.48,-11.12 21.57,-10.52 9.95,0.64 19.98,0.09 29.98,0.19 2.09,0.02 4.17,0.59 6.41,0.93 -3.05,7.17 -7.52,11.3 -15.42,11.11 1.08,2.11 1.58,3.34 2.28,4.43 35.66,55.09 71.4,110.11 106.87,165.31 3.18,4.95 6.72,6.29 12.2,6.27 42.65,-0.17 85.3,-0.09 127.96,-0.11 2.59,-0.01 5.18,-0.24 8.36,-0.4 0.25,-2.23 0.46,-3.22 0.46,-4.21 -0.1,-46.31 -0.05,-92.63 -0.42,-138.94 -0.15,-18.93 -14.07,-32.39 -32.97,-33.15 -3.29,-0.13 -6.88,1.07 -10.51,-1.06 5.83,-5.4 10.08,-10.51 18.92,-10.47 81.98,0.41 163.95,0.24 245.93,0.26 2.11,0 4.23,0.21 8,0.41 -8.1,7.49 -14.98,11.26 -24.97,11.16 -53.64,-0.54 -107.3,-0.25 -160.95,-0.25"
             style="fill:#000000;fill-opacity:1;fill-rule:nonzero;stroke:none"
             id="path32" />
        </g>
        <g
           id="g34"
           transform="translate(987.7258,1208.7821)">
          <path
             d="M 0,0 H 60.947 C 60.73,-0.586 60.64,-1.492 60.325,-1.578 47.64,-5.058 44.608,-14.708 44.591,-26.211 44.54,-61.54 44.548,-96.87 44.522,-132.2 c -0.06,-80.33 -0.178,-160.66 -0.115,-240.99 0.007,-8.615 0.95,-17.237 1.684,-25.837 0.16,-1.887 1.279,-3.692 2.413,-6.776 h 182.821 v -11.349 H -4.363 c 2.214,4.257 5.877,4.237 8.696,5.31 7.137,2.715 11.897,7.141 12.443,15.206 0.268,3.96 1.116,7.905 1.118,11.857 0.062,118.331 0.053,236.662 0.037,354.994 -0.001,2.992 -0.062,5.999 -0.342,8.975 C 16.738,-11.766 12.763,-5.021 3.561,-2.222 2.762,-1.979 2.088,-1.323 0,0"
             style="fill:#000000;fill-opacity:1;fill-rule:nonzero;stroke:none"
             id="path36" />
        </g>
        <g
           id="g38"
           transform="translate(873.0695,1209.3296)">
          <path
             d="m 0,0 c 16.93,0 33.86,0.015 50.789,-0.016 2.58,-0.005 5.159,-0.227 7.895,-0.355 C 58.295,-1.323 58.197,-2.2 57.852,-2.312 46.508,-5.987 42.92,-14.625 42.848,-25.554 c -0.065,-9.994 -0.2,-19.988 -0.201,-29.982 -0.015,-103.612 -0.013,-207.224 -10e-4,-310.836 10e-4,-6.996 0.323,-13.997 0.136,-20.986 -0.359,-13.414 3.739,-23.604 18.255,-26.845 0.91,-0.204 1.728,-0.882 2.547,-1.404 0.244,-0.155 0.348,-0.531 0.515,-0.806 -6.362,-2.53 -59.067,-2.836 -71.614,0.208 4.798,1.825 7.646,3.017 10.564,3.997 7.019,2.358 11.03,7.154 11.981,14.481 0.511,3.939 1.322,7.888 1.335,11.835 0.116,35.313 0.078,70.626 0.097,105.94 0.043,78.959 0.096,157.918 0.129,236.877 0.003,5.329 -0.043,10.662 -0.22,15.988 C 15.982,-15.381 13.18,-5.176 -0.573,-2.081 -0.382,-1.387 -0.191,-0.694 0,0"
             style="fill:#000000;fill-opacity:1;fill-rule:nonzero;stroke:none"
             id="path40" />
        </g>
      </g>
    </g>
  </g>
</svg>
