<svg width="2652" height="708" viewBox="0 0 2652 708" fill="none" xmlns="http://www.w3.org/2000/svg">
<path d="M356.776 553.887C340.165 551.475 332.833 543.792 331.874 528.958C331.675 525.805 331.779 522.633 331.779 519.46C331.779 467.549 331.779 415.638 331.779 363.737C331.779 360.394 331.779 357.041 331.779 352.036C313.687 362.986 297.124 373.006 280.381 383.139C277.066 377.811 280.438 376.368 282.974 374.772C293.155 368.381 303.383 362.065 313.602 355.731C317.904 353.062 322.13 350.27 326.537 347.801C330.184 345.759 331.874 343.194 331.865 338.74C331.694 286.516 331.675 234.291 331.741 182.067C331.76 169.398 326.451 160.917 313.83 156.254C320.801 156.168 327.762 156.045 334.733 156.007C341.647 155.959 348.561 156.007 356.31 156.007V327.809C359.682 326.252 361.904 325.501 363.832 324.295C406.265 297.903 448.679 271.482 491.064 245.013C536.66 216.532 582.189 187.926 627.889 159.616C631.413 157.431 636.066 156.453 640.283 156.159C648.042 155.617 655.868 156.007 664.244 157.754C658.84 161.268 653.455 164.811 648.032 168.296C587.422 207.358 526.555 246.03 466.306 285.652C442.563 301.265 419.779 318.445 397.433 336.024C388.401 343.118 380.965 352.644 374.155 362.046C367.678 370.992 369.188 380.167 376.577 386.786C379.103 389.046 382.332 390.775 385.542 391.953C396.208 395.884 406.882 399.902 417.785 403.083C440.53 409.703 463.456 415.724 486.268 422.144C524.884 433.018 563.632 443.474 602 455.156C626.768 462.696 647.149 477.673 663.807 497.532C674.605 510.41 681.196 525.33 684.653 541.684C685.157 544.086 685.024 546.622 684.083 549.424C683.39 547.914 682.535 546.461 682.032 544.894C676.429 527.495 665.023 514.826 649.837 505.205C635.268 495.974 619.37 489.668 602.893 485.128C578.229 478.329 553.346 472.364 528.559 466.011C488.168 455.659 447.701 445.592 407.481 434.642C398.525 432.201 390.044 427.234 382.028 422.315C371.04 415.562 364.829 405.106 361.819 392.503C357.098 372.759 360.033 354.819 373.509 339.215C381.145 330.373 389.113 321.816 397.68 312.31C395.182 313.383 393.32 313.953 391.715 314.922C382.788 320.325 374.098 326.147 364.962 331.171C358.685 334.628 356.519 338.93 356.576 346.262C356.956 396.587 356.776 446.912 356.776 497.237C356.776 513.059 356.776 528.891 356.776 544.713C356.776 547.505 356.776 550.298 356.776 553.868V553.887Z" fill="#212121"/>
<path d="M1997.33 549.158C1988.37 520.914 1967.51 505.472 1942.14 494.683C1919.95 485.243 1896.6 479.592 1873.28 473.761C1822.11 460.959 1770.93 448.204 1719.98 434.576C1710.17 431.955 1700.96 426.142 1692.27 420.548C1682.3 414.138 1677.13 403.986 1674.33 392.466C1669.53 372.712 1672.62 354.791 1686.04 339.187C1693.65 330.326 1701.64 321.788 1710.2 312.291C1707.69 313.383 1705.82 313.953 1704.2 314.941C1695.01 320.525 1686.07 326.527 1676.68 331.751C1670.99 334.913 1669.09 338.826 1669.13 345.351C1669.41 397.262 1669.28 449.163 1669.28 501.074C1669.28 515.32 1669.28 529.566 1669.28 543.802C1669.28 546.917 1669.28 550.032 1669.28 553.118C1655.81 553.137 1647.8 546.955 1645.24 534.552C1644.35 530.268 1644.33 525.748 1644.32 521.341C1644.26 469.117 1644.28 416.892 1644.28 364.668C1644.28 361.201 1644.28 357.735 1644.28 353.195C1641.71 354.173 1639.71 354.601 1638.06 355.607C1625.34 363.31 1612.71 371.145 1600.01 378.875C1597.69 380.281 1595.2 381.392 1592.59 382.731C1589.61 377.783 1592.95 376.349 1595.49 374.763C1605.67 368.371 1615.9 362.065 1626.12 355.731C1630.42 353.062 1634.65 350.27 1639.06 347.801C1642.72 345.749 1644.38 343.166 1644.36 338.722C1644.19 286.497 1644.17 234.273 1644.24 182.048C1644.26 169.388 1638.93 160.917 1626.09 157.061C1640.25 155.893 1654.11 156.016 1668.83 156.045V327.8C1672.2 326.242 1674.42 325.483 1676.36 324.276C1718.79 297.884 1761.21 271.463 1803.58 244.995C1849.18 216.513 1894.72 187.917 1940.4 159.578C1943.68 157.536 1947.96 156.406 1951.86 156.159C1959.93 155.646 1968.07 156.007 1976.72 157.735C1971.06 161.449 1965.42 165.181 1959.74 168.857C1894.4 211.081 1828.87 253.029 1763.79 295.662C1741.06 310.544 1718.38 325.796 1699.53 345.721C1694.57 350.973 1689.81 356.652 1686.13 362.835C1679.46 374.06 1682.77 384.83 1694.7 390.253C1703.57 394.289 1712.95 397.347 1722.32 400.12C1747.75 407.661 1773.29 414.86 1798.81 422.116C1837.39 433.094 1876.16 443.474 1914.53 455.156C1939.3 462.697 1959.68 477.674 1976.33 497.541C1987.12 510.419 1993.68 525.349 1997.19 541.693C1997.52 543.232 1997.67 544.827 1997.73 546.394C1997.77 547.306 1997.48 548.237 1997.32 549.158H1997.33Z" fill="#212121"/>
<path d="M2368.71 309.755C2360.68 271.045 2342.57 237.378 2314.66 209.342C2287.38 181.953 2254.94 163.604 2216.42 157.944C2201.52 155.75 2193.82 154.677 2178.63 155.085C2142.92 156.045 2103.03 166.396 2074.24 186.844C2017.31 227.263 1990.52 283.676 1988.49 352.663C1988.49 358.352 1987.95 364.107 1988.58 369.729C1992.8 407.737 2004.37 443.123 2027.41 474.102C2051.83 506.943 2082.9 530.857 2122.19 543.545C2146.87 551.523 2172.02 553.783 2197.87 551.836C2235.33 549.006 2268.3 535.491 2297.65 512.451C2325.67 490.437 2345.48 462.364 2359.08 429.627C2369.15 405.343 2372.95 379.654 2373.93 353.812C2374.48 339.196 2371.71 324.21 2368.71 309.755ZM2341.48 355.379C2340.64 406.758 2325.74 453.019 2291.1 491.928C2266.68 519.384 2236.48 537.03 2199.87 541.911C2153.46 548.094 2113.87 532.623 2080.49 500.78C2048.42 470.189 2030.82 432.011 2023.74 388.562C2016.72 345.531 2021.96 304.028 2039.83 264.425C2057.89 224.414 2085.77 193.406 2126.73 175.675C2168.48 157.612 2209.54 160.499 2248.91 182.333C2291.5 205.942 2317.42 243.218 2331.85 288.994C2338.37 309.708 2341.9 330.449 2341.48 355.379Z" fill="#212121"/>
<path d="M1404.29 542.196H1392.1C1391.19 536.08 1389.77 530.876 1389.76 525.681C1389.58 477.255 1389.63 428.839 1389.65 380.423C1389.65 378.637 1390.07 376.842 1390.33 374.819C1392.7 374.667 1394.55 374.439 1396.4 374.439C1431.22 374.42 1466.03 374.42 1500.84 374.42C1502.11 374.42 1503.38 374.363 1504.64 374.496C1512.32 375.266 1516.49 380.138 1516.07 387.849C1515.94 390.062 1515.6 392.256 1515.35 394.459C1515.84 394.573 1516.31 394.697 1516.8 394.811C1522.37 385.523 1527.95 376.234 1534.45 365.389H1390.21C1389.96 363.347 1389.67 362.15 1389.67 360.954C1389.58 304.94 1389.39 248.926 1389.56 192.912C1389.61 173.927 1403.94 160.432 1423.05 160.422C1473.05 160.394 1523.06 160.422 1573.06 160.394C1575.9 160.394 1578.74 160.1 1581.58 159.948C1580.4 157.659 1579.11 156.282 1577.81 156.282C1492.78 156.177 1407.75 156.187 1322.73 156.187C1322.65 156.928 1322.56 157.668 1322.49 158.419C1330.64 163.072 1340.47 158.381 1349.76 161.505C1347.61 164.972 1345.86 167.897 1344.01 170.746C1303.26 233.294 1262.47 295.823 1221.73 358.38C1185.31 414.308 1148.8 470.18 1112.69 526.298C1105.65 537.229 1096.92 543.165 1083.81 542.253C1081.95 542.13 1080.02 542.775 1077.87 543.108C1082.86 551.646 1089.72 553.669 1098.36 553.099C1107.81 552.491 1117.33 553.013 1126.83 552.918C1128.81 552.899 1130.79 552.358 1132.92 552.035C1130.02 545.226 1125.77 541.303 1118.27 541.484C1119.3 539.48 1119.77 538.312 1120.44 537.277C1154.3 484.957 1188.25 432.704 1221.93 380.28C1224.95 375.579 1228.31 374.306 1233.52 374.325C1274.02 374.487 1314.53 374.411 1355.04 374.43C1357.5 374.439 1359.96 374.658 1362.98 374.81C1363.22 376.928 1363.42 377.868 1363.42 378.808C1363.33 422.789 1363.37 466.78 1363.02 510.761C1362.88 528.739 1349.66 541.522 1331.71 542.244C1328.58 542.367 1325.18 541.227 1321.73 543.25C1327.26 548.379 1331.3 553.232 1339.7 553.194C1417.55 552.804 1495.4 552.966 1573.26 552.947C1575.26 552.947 1577.28 552.747 1580.86 552.557C1573.16 545.444 1566.63 541.864 1557.14 541.959C1506.2 542.472 1455.24 542.196 1404.29 542.196ZM1363.41 361.286C1363.41 362.207 1363.17 363.138 1362.95 364.79C1360.67 365.037 1358.26 365.512 1355.87 365.512C1332.14 365.569 1308.4 365.617 1284.67 365.531C1268.28 365.465 1254.04 361.077 1245.4 344.315C1283.27 285.765 1321.35 226.893 1359.42 168.03C1360.26 168.058 1361.08 168.087 1361.91 168.106C1362.42 171.43 1363.39 174.744 1363.39 178.059C1363.48 239.134 1363.44 300.21 1363.41 361.286Z" fill="#212121"/>
<path d="M836.758 156.51H894.643C894.434 157.07 894.348 157.925 894.054 158.01C882.002 161.315 879.124 170.48 879.115 181.402C879.067 214.955 879.077 248.508 879.048 282.061C878.992 358.351 878.878 434.642 878.944 510.932C878.944 519.109 879.846 527.305 880.54 535.472C880.691 537.267 881.755 538.977 882.828 541.911H1056.45V552.69H832.617C834.716 548.645 838.201 548.664 840.88 547.648C847.661 545.064 852.181 540.867 852.694 533.202C852.95 529.442 853.758 525.69 853.758 521.939C853.815 409.56 853.805 297.181 853.796 184.802C853.796 181.962 853.739 179.103 853.473 176.273C852.666 167.688 848.886 161.277 840.148 158.618C839.389 158.39 838.752 157.763 836.767 156.51H836.758Z" fill="#212121"/>
<path d="M727.865 155.988C743.944 155.988 760.022 155.969 776.101 156.007C778.551 156.007 781.002 156.225 783.604 156.339C783.233 157.241 783.138 158.077 782.815 158.181C772.046 161.667 768.636 169.872 768.57 180.253C768.503 189.74 768.38 199.237 768.38 208.725C768.361 307.124 768.37 405.524 768.38 503.933C768.38 510.58 768.684 517.228 768.513 523.867C768.171 536.602 772.065 546.28 785.845 549.367C786.709 549.557 787.488 550.202 788.267 550.696C788.495 550.848 788.599 551.2 788.761 551.465C782.72 553.868 732.661 554.163 720.752 551.266C725.311 549.528 728.017 548.398 730.781 547.467C737.448 545.226 741.256 540.677 742.158 533.715C742.643 529.974 743.412 526.222 743.431 522.471C743.545 488.937 743.507 455.393 743.526 421.859C743.564 346.87 743.621 271.881 743.649 196.892C743.649 191.83 743.611 186.768 743.44 181.706C743.07 170.585 740.411 160.898 727.352 157.953C727.533 157.298 727.713 156.633 727.894 155.978L727.865 155.988Z" fill="#212121"/>
</svg>
