<svg width="4000" height="2667" viewBox="0 0 4000 2667" fill="none" xmlns="http://www.w3.org/2000/svg">
<mask id="mask0_1295_302" style="mask-type:luminance" maskUnits="userSpaceOnUse" x="0" y="0" width="4000" height="2667">
<path d="M0 0.000240326H4000V2666.67H0V0.000240326Z" fill="white"/>
</mask>
<g mask="url(#mask0_1295_302)">
<path d="M643.105 1612.85C619.784 1609.46 609.485 1598.67 608.141 1577.85C607.854 1573.43 608.011 1568.97 608.011 1564.53C608.005 1491.65 608.006 1418.77 608.006 1345.89C608.006 1341.2 608.006 1336.5 608.006 1329.46C582.601 1344.84 559.35 1358.91 535.849 1373.13C531.202 1365.64 535.933 1363.63 539.49 1361.39C553.781 1352.41 568.146 1343.56 582.488 1334.66C588.526 1330.92 594.462 1326.99 600.654 1323.52C605.781 1320.65 608.15 1317.05 608.13 1310.8C607.894 1237.48 607.868 1164.16 607.962 1090.84C607.985 1073.05 600.537 1061.15 582.82 1054.59C592.601 1054.47 602.381 1054.3 612.162 1054.24C621.866 1054.18 631.572 1054.23 642.453 1054.23V1295.43C647.191 1293.25 650.302 1292.19 653.018 1290.5C712.588 1253.44 772.137 1216.35 831.64 1179.19C895.66 1139.21 959.569 1099.05 1023.74 1059.3C1028.68 1056.24 1035.22 1054.86 1041.14 1054.45C1052.03 1053.69 1063.02 1054.23 1074.78 1056.69C1067.19 1061.63 1059.63 1066.59 1052.02 1071.49C966.924 1126.33 881.471 1180.63 796.893 1236.26C763.56 1258.18 731.573 1282.31 700.195 1306.98C687.521 1316.94 677.076 1330.31 667.52 1343.51C658.425 1356.07 660.542 1368.96 670.924 1378.24C674.468 1381.41 679.009 1383.84 683.505 1385.5C698.48 1391.02 713.458 1396.67 728.768 1401.12C760.705 1410.42 792.891 1418.86 824.911 1427.88C879.124 1443.14 933.52 1457.82 987.39 1474.22C1022.17 1484.8 1050.78 1505.83 1074.17 1533.71C1089.33 1551.79 1098.58 1572.74 1103.44 1595.7C1104.15 1599.07 1103.96 1602.63 1102.64 1606.57C1101.67 1604.45 1100.46 1602.41 1099.75 1600.21C1091.89 1575.77 1075.88 1558 1054.56 1544.49C1034.11 1531.53 1011.79 1522.68 988.648 1516.3C954.027 1506.76 919.082 1498.39 884.288 1489.47C827.586 1474.93 770.772 1460.8 714.296 1445.43C701.723 1442.01 689.816 1435.03 678.568 1428.12C663.137 1418.64 654.418 1403.96 650.189 1386.27C643.56 1358.55 647.684 1333.36 666.605 1311.46C677.331 1299.05 688.518 1287.03 700.535 1273.69C697.033 1275.2 694.42 1276 692.157 1277.36C679.621 1284.95 667.421 1293.12 654.603 1300.18C645.787 1305.03 642.749 1311.07 642.827 1321.37C643.357 1392.02 643.105 1462.68 643.105 1533.34C643.105 1555.55 643.105 1577.77 643.105 1599.99C643.105 1603.91 643.105 1607.83 643.105 1612.85Z" fill="#212121"/>
<path d="M2946.34 1606.21C2933.76 1566.55 2904.48 1544.88 2868.86 1529.73C2837.7 1516.49 2804.91 1508.55 2772.18 1500.36C2700.34 1482.39 2628.48 1464.48 2556.94 1445.35C2543.17 1441.67 2530.23 1433.51 2518.04 1425.66C2504.04 1416.66 2496.78 1402.4 2492.85 1386.23C2486.11 1358.49 2490.46 1333.34 2509.3 1311.44C2520 1299 2531.21 1287.01 2543.22 1273.67C2539.7 1275.2 2537.07 1276 2534.79 1277.39C2521.9 1285.23 2509.34 1293.65 2496.16 1300.98C2488.18 1305.42 2485.51 1310.92 2485.56 1320.07C2485.94 1392.95 2485.77 1465.83 2485.77 1538.7C2485.77 1558.7 2485.77 1578.7 2485.77 1598.69C2485.77 1603.07 2485.77 1607.45 2485.77 1611.77C2466.84 1611.8 2455.61 1603.12 2452.01 1585.7C2450.77 1579.69 2450.73 1573.35 2450.73 1567.16C2450.64 1493.84 2450.67 1420.52 2450.67 1347.19C2450.67 1342.33 2450.67 1337.46 2450.67 1331.09C2447.07 1332.46 2444.26 1333.07 2441.94 1334.47C2424.09 1345.29 2406.36 1356.29 2388.53 1367.14C2385.28 1369.12 2381.77 1370.68 2378.11 1372.56C2373.94 1365.62 2378.62 1363.61 2382.19 1361.37C2396.48 1352.4 2410.84 1343.54 2425.18 1334.65C2431.22 1330.9 2437.16 1326.98 2443.35 1323.51C2448.49 1320.63 2450.82 1317 2450.8 1310.76C2450.56 1237.44 2450.53 1164.12 2450.63 1090.8C2450.65 1073.02 2443.17 1061.14 2425.14 1055.72C2445.02 1054.07 2464.47 1054.24 2485.15 1054.29V1295.43C2489.88 1293.24 2492.99 1292.18 2495.71 1290.48C2555.28 1253.42 2614.83 1216.34 2674.33 1179.17C2738.35 1139.19 2802.27 1099.04 2866.41 1059.26C2871.03 1056.39 2877.03 1054.8 2882.5 1054.45C2893.84 1053.72 2905.26 1054.23 2917.4 1056.66C2909.46 1061.86 2901.54 1067.11 2893.56 1072.27C2801.82 1131.55 2709.83 1190.45 2618.46 1250.3C2586.56 1271.2 2554.72 1292.6 2528.25 1320.58C2521.28 1327.96 2514.6 1335.93 2509.44 1344.62C2500.07 1360.38 2504.71 1375.49 2521.46 1383.11C2533.91 1388.78 2547.08 1393.07 2560.23 1396.96C2595.94 1407.55 2631.8 1417.65 2667.62 1427.84C2721.79 1443.26 2776.22 1457.83 2830.09 1474.23C2864.87 1484.82 2893.48 1505.85 2916.86 1533.74C2932.01 1551.82 2941.22 1572.78 2946.15 1595.73C2946.61 1597.89 2946.82 1600.12 2946.91 1602.33C2946.96 1603.62 2946.55 1604.92 2946.34 1606.21Z" fill="#212121"/>
<path d="M3429.51 1334.16C3428.33 1406.29 3407.41 1471.24 3358.79 1525.87C3324.49 1564.41 3282.09 1589.19 3230.69 1596.04C3165.55 1604.72 3109.96 1583 3063.09 1538.29C3018.07 1495.35 2993.36 1441.75 2983.43 1380.75C2973.57 1320.33 2980.92 1262.07 3006.01 1206.47C3031.37 1150.29 3070.51 1106.76 3128.01 1081.87C3186.63 1056.51 3244.28 1060.56 3299.55 1091.21C3359.35 1124.36 3395.73 1176.69 3415.99 1240.96C3425.15 1270.04 3430.11 1299.16 3429.51 1334.16ZM3467.73 1270.11C3456.47 1215.76 3431.04 1168.49 3391.85 1129.13C3353.56 1090.68 3308.01 1064.92 3253.93 1056.97C3233.01 1053.89 3211.48 1054.71 3190.21 1054.29C3140.07 1053.32 3094.75 1068.84 3054.32 1097.55C2974.4 1154.29 2936.79 1233.49 2933.93 1330.35C2933.93 1338.33 2933.17 1346.41 2934.05 1354.31C2939.99 1407.67 2956.23 1457.35 2988.57 1500.84C3022.85 1546.95 3066.48 1580.52 3121.64 1598.33C3156.29 1609.53 3191.6 1612.71 3227.89 1609.97C3280.48 1606 3326.77 1587.03 3367.97 1554.68C3407.32 1523.77 3435.12 1484.36 3454.21 1438.4C3468.36 1404.31 3473.69 1368.24 3475.07 1331.96C3475.84 1311.44 3471.95 1290.4 3467.73 1270.11Z" fill="#212121"/>
<path d="M2056.36 1342.45C2056.36 1343.75 2056.03 1345.05 2055.71 1347.37C2052.51 1347.72 2049.13 1348.39 2045.77 1348.39C2012.45 1348.47 1979.13 1348.53 1945.81 1348.41C1922.8 1348.32 1902.81 1342.16 1890.68 1318.63C1943.85 1236.43 1997.31 1153.77 2050.76 1071.13C2051.93 1071.17 2053.09 1071.21 2054.25 1071.24C2054.97 1075.91 2056.33 1080.56 2056.33 1085.21C2056.45 1170.96 2056.4 1256.71 2056.36 1342.45ZM2113.75 1596.44H2096.64C2095.36 1587.85 2093.37 1580.55 2093.35 1573.25C2093.09 1505.27 2093.17 1437.29 2093.2 1369.32C2093.21 1366.81 2093.79 1364.29 2094.15 1361.45C2097.48 1361.24 2100.08 1360.92 2102.68 1360.92C2151.56 1360.89 2200.43 1360.89 2249.31 1360.89C2251.08 1360.89 2252.87 1360.81 2254.64 1361C2265.41 1362.08 2271.28 1368.92 2270.68 1379.75C2270.51 1382.85 2270.03 1385.93 2269.68 1389.03C2270.36 1389.19 2271.03 1389.36 2271.71 1389.52C2279.53 1376.48 2287.36 1363.44 2296.49 1348.21H2093.99C2093.63 1345.35 2093.23 1343.67 2093.23 1341.99C2093.11 1263.35 2092.83 1184.71 2093.07 1106.07C2093.15 1079.41 2113.27 1060.47 2140.09 1060.45C2210.29 1060.41 2280.49 1060.45 2350.69 1060.41C2354.68 1060.41 2358.67 1060 2362.65 1059.79C2361 1056.57 2359.19 1054.64 2357.36 1054.64C2237.99 1054.49 2118.61 1054.51 1999.24 1054.51C1999.13 1055.55 1999.01 1056.59 1998.91 1057.64C2010.35 1064.17 2024.15 1057.59 2037.2 1061.97C2034.17 1066.84 2031.72 1070.95 2029.12 1074.95C1971.91 1162.76 1914.64 1250.55 1857.45 1338.37C1806.32 1416.89 1755.05 1495.33 1704.36 1574.12C1694.48 1589.47 1682.23 1597.8 1663.81 1596.52C1661.2 1596.35 1658.49 1597.25 1655.48 1597.72C1662.48 1609.71 1672.12 1612.55 1684.24 1611.75C1697.51 1610.89 1710.88 1611.63 1724.21 1611.49C1727 1611.47 1729.77 1610.71 1732.76 1610.25C1728.69 1600.69 1722.73 1595.19 1712.2 1595.44C1713.64 1592.63 1714.31 1590.99 1715.24 1589.53C1762.79 1516.08 1810.44 1442.72 1857.73 1369.12C1861.97 1362.52 1866.69 1360.73 1874 1360.76C1930.87 1360.99 1987.73 1360.88 2044.61 1360.91C2048.07 1360.92 2051.52 1361.23 2055.76 1361.44C2056.09 1364.41 2056.37 1365.73 2056.37 1367.05C2056.24 1428.8 2056.31 1490.56 2055.81 1552.31C2055.61 1577.55 2037.05 1595.49 2011.85 1596.51C2007.47 1596.68 2002.68 1595.08 1997.84 1597.92C2005.61 1605.12 2011.28 1611.93 2023.07 1611.88C2132.37 1611.33 2241.67 1611.56 2350.97 1611.53C2353.79 1611.53 2356.61 1611.25 2361.64 1610.99C2350.84 1601 2341.67 1595.97 2328.35 1596.11C2256.83 1596.83 2185.28 1596.44 2113.75 1596.44Z" fill="#212121"/>
<path d="M1316.97 1054.96H1398.23C1397.94 1055.74 1397.82 1056.95 1397.4 1057.06C1380.49 1061.7 1376.44 1074.57 1376.42 1089.91C1376.35 1137.01 1376.36 1184.12 1376.33 1231.22C1376.25 1338.33 1376.09 1445.44 1376.18 1552.54C1376.18 1564.03 1377.44 1575.53 1378.42 1586.99C1378.63 1589.51 1380.13 1591.92 1381.64 1596.03H1625.4V1611.16H1311.15C1314.1 1605.48 1318.98 1605.51 1322.74 1604.08C1332.26 1600.46 1338.61 1594.56 1339.33 1583.81C1339.69 1578.53 1340.82 1573.27 1340.82 1568C1340.91 1410.22 1340.9 1252.45 1340.87 1094.67C1340.87 1090.68 1340.79 1086.67 1340.42 1082.7C1339.28 1070.65 1333.98 1061.65 1321.71 1057.92C1320.65 1057.6 1319.75 1056.72 1316.97 1054.96Z" fill="#212121"/>
<path d="M1164.09 1054.23C1186.66 1054.23 1209.24 1054.21 1231.81 1054.25C1235.25 1054.26 1238.69 1054.55 1242.34 1054.72C1241.82 1055.99 1241.69 1057.16 1241.23 1057.31C1226.1 1062.21 1221.32 1073.73 1221.22 1088.3C1221.13 1101.62 1220.95 1114.95 1220.95 1128.28C1220.93 1266.42 1220.94 1404.57 1220.95 1542.72C1220.95 1552.05 1221.38 1561.39 1221.13 1570.7C1220.65 1588.59 1226.12 1602.18 1245.47 1606.5C1246.69 1606.77 1247.78 1607.67 1248.87 1608.37C1249.19 1608.58 1249.33 1609.08 1249.56 1609.44C1241.07 1612.82 1170.8 1613.23 1154.07 1609.17C1160.47 1606.73 1164.26 1605.14 1168.16 1603.84C1177.51 1600.69 1182.86 1594.3 1184.13 1584.53C1184.81 1579.28 1185.89 1574.01 1185.91 1568.75C1186.06 1521.67 1186.01 1474.58 1186.04 1427.5C1186.1 1322.22 1186.17 1216.94 1186.21 1111.66C1186.22 1104.56 1186.15 1097.44 1185.92 1090.34C1185.4 1074.74 1181.66 1061.13 1163.33 1057C1163.58 1056.08 1163.84 1055.15 1164.09 1054.23Z" fill="#212121"/>
</g>
</svg>
