<svg width="178" height="180" viewBox="0 0 178 180" fill="none" xmlns="http://www.w3.org/2000/svg">
<g clip-path="url(#clip0_1303_299)" filter="url(#filter0_i_1303_299)">
<mask id="mask0_1303_299" style="mask-type:luminance" maskUnits="userSpaceOnUse" x="-150" y="-69" width="479" height="316">
<path d="M-149.553 -68.1081H328.656V246.781H-149.553V-68.1081Z" fill="white"/>
</mask>
<g mask="url(#mask0_1303_299)">
<path d="M90.0975 168.466C91.1595 168.418 92.1671 168.383 93.1734 168.325C94.1765 168.267 95.1787 168.19 96.181 168.116C105.071 167.46 113.598 165.289 121.487 161.246C149.719 146.781 163.623 123.229 165.663 92.3504C165.977 87.5937 165.53 82.8315 164.848 78.102C163.083 65.8651 158.896 54.5054 151.824 44.307C138.041 24.4294 119.051 13.0981 94.6292 11.0206C90.1929 10.6432 85.7403 10.9243 81.3028 11.4747C73.3279 12.4639 65.6588 14.5392 58.555 18.2125C30.9888 32.4666 17.083 55.4986 14.7371 85.7171C14.2259 92.3029 14.8479 98.9008 16.1766 105.409C19.8008 123.16 28.1843 138.271 42.0042 150.241C55.7464 162.144 71.8545 168.17 90.0975 168.466ZM90.2662 8.63567C111.243 8.66542 129.852 15.2701 145.793 28.7532C160.558 41.2404 169.659 57.0512 173.141 75.9844C174.218 81.8394 174.614 87.7516 174.258 93.6607C173.092 112.993 165.928 129.898 152.58 144.124C139.69 157.862 123.739 166.167 105.139 169.52C101.764 170.128 98.3057 170.287 94.883 170.624C93.4155 170.769 91.9391 170.951 90.4698 170.928C74.9093 170.683 60.2157 167.145 46.7865 159.228C27.2284 147.697 14.344 131.097 8.4778 109.292C7.30571 104.934 6.47873 100.504 6.30227 95.9894C6.15514 92.2259 5.90377 88.4422 6.13155 84.693C6.70477 75.2584 8.83024 66.131 12.8467 57.5315C24.2539 33.1081 43.3756 17.7634 69.6106 10.9687C76.3551 9.22199 83.2443 8.37573 90.2662 8.63567Z" fill="#212121"/>
<path d="M96.2695 65.133C95.7988 65.3437 95.3211 65.5403 94.8582 65.7669C83.535 71.3097 72.2196 76.8683 60.8805 82.3789C59.9172 82.847 59.4749 83.4539 59.2179 84.4578C55.3403 99.598 51.4233 114.728 47.5123 129.86C47.4098 130.257 47.273 130.644 47.1572 131.02C44.4623 130.684 42.2679 128.493 42.3558 125.976C42.4248 124.001 42.7372 122.007 43.181 120.076C44.7191 113.381 46.3552 106.708 47.9669 100.029C48.8899 96.2049 49.8397 92.3867 50.77 88.5638C50.8529 88.2232 50.8808 87.8696 50.9725 87.2739C46.2368 89.5804 41.6998 91.7903 37.1441 94.0095C36.7354 93.1195 37.3258 92.9567 37.7866 92.7287C39.3536 91.9542 40.9235 91.1854 42.4932 90.4158C45.0615 89.1567 47.6083 87.8512 50.2107 86.665C51.1869 86.2201 51.6322 85.5812 51.8921 84.5956C54.2174 75.7702 56.565 66.9503 58.9463 58.1397C59.5482 55.9129 60.3471 53.7383 60.9562 51.5134C61.3282 50.1544 61.6196 48.7547 61.7507 47.3553C61.901 45.7502 61.2865 44.9403 59.8008 44.3048C59.3963 44.1318 58.9938 43.9539 58.6257 43.6125C62.42 43.4664 66.1814 43.2887 70.1896 43.5618C66.7664 56.3608 63.414 68.8953 59.9982 81.6674C60.4971 81.5125 60.7834 81.4629 61.033 81.3406C82.2923 70.916 103.554 60.4963 124.799 50.0449C127.888 48.5259 130.93 46.9083 133.93 45.2267C135.201 44.5147 136.469 44.2381 137.879 44.3925C138.752 44.4879 139.624 44.5805 140.608 44.6865C140.359 45.4636 139.79 45.5841 139.367 45.8183C129.781 51.1301 120.167 56.3915 110.601 61.7377C98.0308 68.7628 85.3772 75.6503 73.22 83.3703C70.5414 85.0712 67.8508 86.7829 65.3559 88.7277C63.37 90.2757 61.4951 92.0408 59.8885 93.9679C57.0049 97.4262 57.759 100.216 61.8618 102.109C64.7709 103.45 67.8795 104.177 71.0164 104.722C80.9998 106.456 91.0045 108.072 100.984 109.828C109.234 111.28 117.496 112.71 125.524 115.167C132.041 117.161 137.407 120.897 141.963 125.841C142.342 126.252 142.651 126.727 142.993 127.172C142.926 127.268 142.859 127.364 142.793 127.46C142.065 127.094 141.324 126.752 140.612 126.359C136.083 123.862 131.29 122.022 126.214 121.001C123.152 120.385 120.043 119.958 116.937 119.6C105.815 118.318 94.7195 116.867 83.7092 114.84C78.9565 113.965 74.2713 112.817 69.7548 111.071C66.9109 109.971 64.2981 108.489 61.9872 106.512C60.2405 105.017 58.8267 103.264 57.8816 101.163C56.7707 98.6924 56.6939 96.212 57.6762 93.6737C58.8036 90.7606 60.5518 88.2604 62.9938 86.3323C65.8526 84.0757 68.8066 81.925 71.8246 79.8798C79.1458 74.9185 86.9341 70.7155 94.6363 66.3756C95.2328 66.0394 95.8288 65.7025 96.4251 65.3659L96.2695 65.133Z" fill="#212121"/>
</g>
</g>
<defs>
<filter id="filter0_i_1303_299" x="0" y="0" width="180" height="184" filterUnits="userSpaceOnUse" color-interpolation-filters="sRGB">
<feFlood flood-opacity="0" result="BackgroundImageFix"/>
<feBlend mode="normal" in="SourceGraphic" in2="BackgroundImageFix" result="shape"/>
<feColorMatrix in="SourceAlpha" type="matrix" values="0 0 0 0 0 0 0 0 0 0 0 0 0 0 0 0 0 0 127 0" result="hardAlpha"/>
<feOffset dy="4"/>
<feGaussianBlur stdDeviation="2"/>
<feComposite in2="hardAlpha" operator="arithmetic" k2="-1" k3="1"/>
<feColorMatrix type="matrix" values="0 0 0 0 0 0 0 0 0 0 0 0 0 0 0 0 0 0 0.25 0"/>
<feBlend mode="normal" in2="shape" result="effect1_innerShadow_1303_299"/>
</filter>
<clipPath id="clip0_1303_299">
<rect width="180" height="180" fill="white"/>
</clipPath>
</defs>
</svg>
